<svg viewBox="0 0 45 25" fill="none" xmlns="http://www.w3.org/2000/svg"><g><path d="M40.37.93H5.05a4.17 4.17 0 00-4.2 4.15v15.7c0 2.3 1.88 4.15 4.2 4.15h35.32c2.32 0 4.2-1.85 4.2-4.14V5.09a4.17 4.17 0 00-4.2-4.16z" fill="#FFB3C7"/><path d="M40.48 15a1.06 1.06 0 00-.98.62 1.02 1.02 0 00.22 1.13 1.05 1.05 0 001.8-.72c0-.27-.12-.53-.3-.73-.2-.2-.46-.3-.74-.3zm-3.4-.8a1.47 1.47 0 00-.88-1.42 1.51 1.51 0 00-1.65.28 1.47 1.47 0 001.03 2.55c.4 0 .77-.14 1.05-.4.28-.27.44-.63.45-1.01zm0-2.75h1.65v5.5h-1.65v-.36c-.48.33-1.05.5-1.64.5a2.95 2.95 0 01-2.02-.87 2.88 2.88 0 013.66-4.42v-.35zm-13.2.72v-.72h-1.7v5.5h1.7v-2.57c0-.87.95-1.33 1.6-1.33h.02v-1.6a2.07 2.07 0 00-1.62.71zm-4.2 2.03a1.47 1.47 0 00-.88-1.42 1.51 1.51 0 00-1.66.28 1.48 1.48 0 001.04 2.55c.38 0 .76-.14 1.04-.4.28-.27.44-.63.45-1.01zm0-2.75h1.64v5.5h-1.64v-.36a2.9 2.9 0 01-1.64.5 2.95 2.95 0 01-2.02-.87 2.88 2.88 0 013.66-4.42v-.35zm9.93-.15a2.02 2.02 0 00-1.7.77v-.62h-1.64v5.5h1.66v-2.9c0-.83.56-1.24 1.24-1.24.72 0 1.14.43 1.14 1.24v2.9h1.65v-3.5c0-1.28-1.02-2.15-2.35-2.15zm-16.88 5.64h1.73V9h-1.73v7.94zm-7.58 0h1.83V9H5.15v7.94zM11.54 9a6.29 6.29 0 01-1.87 4.52l2.53 3.44H9.94L7.2 13.2l.7-.53A4.6 4.6 0 009.76 9h1.79z" fill="#0A0B09"/></g><defs><clipPath id="clip0"><path fill="#fff" transform="translate(.86 .93)" d="M0 0h43.71v24H0z"/></clipPath></defs></svg>