<svg viewBox="0 0 27 21" fill="none" xmlns="http://www.w3.org/2000/svg"><path d="M5.603 20.82v-1.325a.784.784 0 00-.83-.838.815.815 0 00-.74.375.772.772 0 00-.696-.375.694.694 0 00-.617.314v-.257h-.46v2.11h.47V19.65c0-.367.202-.56.513-.56.31 0 .458.197.458.555v1.173h.463v-1.168c0-.367.211-.56.513-.56.302 0 .462.197.462.555v1.173h.464zm6.85-2.11h-.749v-.643h-.463v.643h-.423v.419h.428v.959c0 .49.19.781.732.781.202 0 .4-.056.572-.163l-.128-.393a.841.841 0 01-.406.12c-.228 0-.303-.142-.303-.354v-.954h.749l-.01-.415zm3.91-.053a.622.622 0 00-.555.309v-.258h-.455v2.11h.459v-1.183c0-.348.15-.542.45-.542a.742.742 0 01.287.053l.14-.432a.978.978 0 00-.325-.058v.001zm-5.905.221a1.561 1.561 0 00-.86-.22c-.532 0-.876.256-.876.674 0 .345.256.557.726.622l.216.031c.257.036.371.102.371.221 0 .163-.168.257-.48.257a1.125 1.125 0 01-.701-.22l-.218.36c.266.186.586.282.911.273.609 0 .962-.288.962-.69 0-.37-.279-.565-.737-.63l-.216-.031c-.198-.027-.357-.066-.357-.207 0-.142.15-.248.4-.248.232.003.458.066.658.181l.2-.373zm12.282-.22a.622.622 0 00-.556.308v-.258h-.455v2.11h.459v-1.183c0-.348.15-.542.45-.542a.743.743 0 01.287.053l.14-.432a.977.977 0 00-.325-.058v.001zm-5.906 1.107c0 .643.445 1.108 1.124 1.108.276.012.546-.08.758-.257l-.22-.371a.917.917 0 01-.552.19.675.675 0 01-.45-1.138.675.675 0 01.45-.212c.2.002.393.068.551.19l.22-.371a1.102 1.102 0 00-.757-.257c-.679 0-1.124.468-1.124 1.108v.01zm4.293 0V18.71h-.458v.257a.8.8 0 00-.665-.309c-.591 0-1.054.464-1.054 1.108 0 .645.463 1.109 1.054 1.109a.797.797 0 00.665-.31v.257h.458v-1.057zm-1.706 0a.642.642 0 11.642.675.631.631 0 01-.642-.675zm-5.531-1.108c-.618 0-1.05.45-1.05 1.108 0 .658.45 1.108 1.08 1.108.315.011.622-.094.864-.295l-.226-.341c-.174.14-.389.218-.612.221a.586.586 0 01-.63-.514h1.565c0-.057.009-.114.009-.176 0-.658-.41-1.108-1-1.108v-.003zm-.01.41c.296 0 .485.187.533.514h-1.1c.047-.304.234-.514.56-.514h.008zm11.5.698v-1.902h-.457v1.103a.799.799 0 00-.665-.309c-.591 0-1.055.464-1.055 1.108 0 .644.464 1.108 1.055 1.108a.797.797 0 00.665-.31v.258h.458v-1.056zm.765.75a.209.209 0 01.151.06.209.209 0 01.058.156.196.196 0 01-.017.08.197.197 0 01-.044.067.216.216 0 01-.366-.148.208.208 0 01.13-.193.225.225 0 01.08-.022h.008zm0 .372a.177.177 0 00.064-.012.203.203 0 00.052-.035.19.19 0 00.034-.053.178.178 0 000-.127.183.183 0 00-.034-.052.152.152 0 00-.052-.034.156.156 0 00-.064-.013.163.163 0 00-.15.226c.007.02.019.038.034.053a.181.181 0 00.052.035.183.183 0 00.056.012h.008zm.013-.257c.02 0 .04.005.057.017a.06.06 0 01.021.046.052.052 0 01-.017.04.077.077 0 01-.046.02l.064.073h-.05l-.059-.073h-.03v.073h-.042v-.196h.102zm-.05.038v.051h.05a.05.05 0 00.025-.006.023.023 0 00.01-.02c0-.004 0-.007-.002-.01a.024.024 0 00-.008-.009.04.04 0 00-.025-.006h-.05zm-2.432-.9c0-.372.241-.675.642-.675a.674.674 0 01.522 1.142.677.677 0 01-1.164-.467zm-15.482 0v-1.056h-.466v.258a.803.803 0 00-.667-.31c-.59 0-1.052.465-1.052 1.109 0 .644.462 1.108 1.052 1.108a.8.8 0 00.667-.31v.258h.458l.008-1.057zm-1.706 0a.643.643 0 11.641.675.633.633 0 01-.65-.678l.009.003z" fill="#231F20"/><path d="M17.244 2.632H10.3v12.494h6.944V2.632z" fill="#FF5F00"/><path d="M10.738 8.879A7.942 7.942 0 0113.77 2.63a7.932 7.932 0 00-11.635 2.03 7.955 7.955 0 003.26 11.365 7.928 7.928 0 008.375-.901 7.932 7.932 0 01-3.032-6.246z" fill="#EB001B"/><path d="M26.611 8.88a7.951 7.951 0 01-4.467 7.146 7.926 7.926 0 01-8.372-.9 7.946 7.946 0 003.03-6.247 7.956 7.956 0 00-3.03-6.247 7.93 7.93 0 0111.63 2.032 7.953 7.953 0 011.209 4.216zM25.853 13.803v-.257h.103v-.053h-.257v.053h.103v.257h.051zm.514 0v-.309h-.081l-.093.213-.096-.213h-.08v.31h.057v-.234l.086.2h.065l.088-.2v.233h.054z" fill="#F79E1B"/></svg>