<svg fill="none" xmlns="http://www.w3.org/2000/svg" viewBox="0 0 50 32">
  <g clip-path="url(#clip0)">
    <path d="M45.509 0H4.476l-.512.001c-.144.001-.288.003-.432.007-.314.008-.63.027-.94.082-.315.057-.608.15-.894.295A3 3 0 00.385 1.699a3.16 3.16 0 00-.295.893c-.056.31-.074.627-.083.94-.004.144-.005.288-.006.432V28.037c0 .143.002.287.006.431.009.313.027.63.083.94.057.315.149.608.295.893a2.988 2.988 0 001.313 1.314c.286.146.579.239.894.295.31.055.626.074.94.083l.432.006.512.001H45.51l.512-.001.432-.006c.313-.009.63-.027.94-.083.315-.056.608-.149.894-.295a2.983 2.983 0 001.313-1.313 3.14 3.14 0 00.295-.894c.056-.31.074-.627.082-.94.004-.144.006-.288.007-.431l.001-.513V4.477l-.001-.513c0-.144-.003-.288-.007-.432a6.238 6.238 0 00-.082-.94A3.14 3.14 0 0049.6 1.7 3.01 3.01 0 0047.393.09a6.291 6.291 0 00-.94-.082A21.575 21.575 0 0046.021 0L45.51 0z" fill="#000"/>
    <path d="M45.509 1.067h.505c.136.002.273.003.41.007.24.006.52.02.78.066.227.04.417.103.6.196a1.93 1.93 0 01.846.847c.093.181.154.37.195.6a5.3 5.3 0 01.066.778c.004.136.005.272.006.411.002.168.002.336.002.505v23.047c0 .168 0 .336-.002.508 0 .136-.002.271-.006.407-.007.24-.02.521-.067.782-.04.225-.101.415-.194.596a1.931 1.931 0 01-.848.848 2.09 2.09 0 01-.596.195c-.266.047-.557.06-.777.067-.138.003-.275.005-.416.005l-.504.001H3.969c-.138-.002-.276-.003-.408-.006a5.443 5.443 0 01-.78-.067 2.096 2.096 0 01-.6-.196 1.913 1.913 0 01-.846-.846 2.094 2.094 0 01-.195-.6c-.047-.26-.06-.54-.067-.778a19.863 19.863 0 01-.006-.41V3.971c.001-.137.003-.274.006-.41a5.28 5.28 0 01.067-.781 2.09 2.09 0 01.195-.598 1.924 1.924 0 01.847-.847c.182-.092.372-.154.598-.195.261-.047.541-.06.78-.066.138-.004.274-.005.41-.006l.506-.001H45.51" fill="#fff"/>
    <path d="M13.646 10.763c.428-.535.718-1.254.641-1.989-.626.031-1.39.414-1.833.95-.398.458-.75 1.207-.658 1.91.704.062 1.406-.35 1.85-.871zM14.28 11.772c-1.022-.06-1.89.58-2.378.58-.488 0-1.235-.55-2.043-.534-1.051.015-2.027.61-2.56 1.555-1.098 1.892-.29 4.697.777 6.238.518.762 1.143 1.601 1.966 1.571.778-.03 1.082-.503 2.028-.503.944 0 1.219.503 2.042.488.853-.015 1.387-.763 1.905-1.526.595-.868.838-1.707.854-1.753-.016-.016-1.646-.641-1.662-2.517-.015-1.57 1.28-2.318 1.342-2.364-.732-1.082-1.875-1.204-2.272-1.235zM23.173 9.647c2.22 0 3.765 1.53 3.765 3.758 0 2.235-1.577 3.774-3.821 3.774h-2.458v3.908h-1.776V9.647h4.29zm-2.514 6.041h2.038c1.546 0 2.426-.832 2.426-2.275s-.88-2.268-2.418-2.268h-2.046v4.543zM27.402 18.717c0-1.46 1.118-2.355 3.1-2.466l2.284-.135v-.642c0-.928-.627-1.483-1.673-1.483-.991 0-1.61.476-1.76 1.221h-1.618c.095-1.506 1.38-2.616 3.441-2.616 2.022 0 3.314 1.07 3.314 2.743v5.748H32.85v-1.371h-.04c-.483.927-1.538 1.514-2.632 1.514-1.633 0-2.775-1.015-2.775-2.513zm5.383-.753v-.659l-2.053.127c-1.023.072-1.601.524-1.601 1.237 0 .73.602 1.205 1.522 1.205 1.197 0 2.133-.824 2.133-1.91zM36.04 24.156v-1.388c.126.032.412.032.554.032.793 0 1.221-.333 1.483-1.19 0-.015.15-.507.15-.515l-3.012-8.348h1.855l2.11 6.786h.03l2.11-6.786h1.807l-3.124 8.776c-.713 2.022-1.537 2.672-3.266 2.672-.143 0-.57-.016-.698-.04z" fill="#000"/>
  </g>
  <defs>
    <clipPath id="clip0">
      <path fill="#fff" d="M0 0h49.985v32H0z"/>
    </clipPath>
  </defs>
</svg>
