<svg fill="none" xmlns="http://www.w3.org/2000/svg" viewBox="0 0 60 32">
  <g clip-path="url(#clip0)">
    <path d="M44.16 0H16C7.2 0 0 7.2 0 16s7.2 16 16 16h28.16c8.8 0 16-7.2 16-16s-7.2-16-16-16z" fill="#fff"/>
    <path d="M44.16 1.296c1.976 0 3.896.392 5.704 1.16a14.832 14.832 0 017.84 7.84A14.515 14.515 0 0158.864 16c0 1.976-.392 3.896-1.16 5.704a14.832 14.832 0 01-7.84 7.84 14.515 14.515 0 01-5.704 1.16H16c-1.976 0-3.896-.392-5.704-1.16a14.832 14.832 0 01-7.84-7.84A14.515 14.515 0 011.296 16c0-1.976.392-3.896 1.16-5.704a14.832 14.832 0 017.84-7.84A14.515 14.515 0 0116 1.296h28.16zm0-1.296H16C7.2 0 0 7.2 0 16s7.2 16 16 16h28.16c8.8 0 16-7.2 16-16s-7.2-16-16-16z" fill="#3C4043"/>
    <path d="M28.688 17.136v4.84h-1.536V10.024h4.072c1.032 0 1.912.344 2.632 1.032.736.688 1.104 1.528 1.104 2.52 0 1.016-.368 1.856-1.104 2.536-.712.68-1.592 1.016-2.632 1.016h-2.536v.008zm0-5.64v4.168h2.568c.608 0 1.12-.208 1.52-.616.408-.408.616-.904.616-1.464 0-.552-.208-1.04-.616-1.448-.4-.424-.904-.632-1.52-.632h-2.568v-.008zM38.976 13.528c1.136 0 2.032.304 2.688.912.656.608.984 1.44.984 2.496v5.04h-1.464V20.84h-.064c-.632.936-1.48 1.4-2.536 1.4-.904 0-1.656-.264-2.264-.8-.608-.536-.912-1.2-.912-2 0-.848.32-1.52.96-2.016.64-.504 1.496-.752 2.56-.752.912 0 1.664.168 2.248.504v-.352c0-.536-.208-.984-.632-1.36a2.168 2.168 0 00-1.488-.56c-.856 0-1.536.36-2.032 1.088l-1.352-.848c.744-1.08 1.848-1.616 3.304-1.616zm-1.984 5.936c0 .4.168.736.512 1 .336.264.736.4 1.192.4.648 0 1.224-.24 1.728-.72s.76-1.04.76-1.688c-.48-.376-1.144-.568-2-.568-.624 0-1.144.152-1.56.448-.424.312-.632.688-.632 1.128zM51 13.792l-5.12 11.776h-1.584l1.904-4.12-3.376-7.656h1.672l2.432 5.872h.032l2.368-5.872H51z" fill="#3C4043"/>
    <path d="M22.578 16.16c0-.5-.044-.98-.128-1.44h-6.438v2.64h3.708a3.176 3.176 0 01-1.376 2.126V21.2h2.207c1.289-1.193 2.027-2.956 2.027-5.039z" fill="#4285F4"/>
    <path d="M18.345 19.486c-.615.415-1.406.657-2.331.657-1.788 0-3.305-1.205-3.848-2.829H9.889v1.767a6.854 6.854 0 006.125 3.774c1.85 0 3.406-.609 4.538-1.657l-2.207-1.712z" fill="#34A853"/>
    <path d="M11.951 16.004c0-.456.076-.897.215-1.311v-1.767H9.889a6.818 6.818 0 00-.729 3.078c0 1.107.263 2.152.729 3.078l2.277-1.767a4.133 4.133 0 01-.215-1.311z" fill="#FABB05"/>
    <path d="M16.014 11.864c1.01 0 1.915.348 2.63 1.028l1.955-1.954c-1.188-1.107-2.737-1.786-4.585-1.786a6.855 6.855 0 00-6.125 3.774l2.277 1.767c.543-1.624 2.06-2.829 3.848-2.829z" fill="#E94235"/>
  </g>
  <defs>
    <clipPath id="clip0">
      <path fill="#fff" d="M0 0h60v32H0z"/>
    </clipPath>
  </defs>
</svg>
