<svg width="35" height="22" viewBox="0 0 35 22" fill="none" xmlns="http://www.w3.org/2000/svg">
<path d="M0 0H35V22H0V0Z" fill="white"/>
<path d="M10.8729 14.7244H9.4969C9.40274 14.7244 9.32266 14.7957 9.30797 14.8926L8.75144 18.5706C8.74038 18.6432 8.7943 18.7086 8.86492 18.7086H9.52185C9.61602 18.7086 9.6961 18.6373 9.71078 18.5402L9.86088 17.5482C9.87537 17.4511 9.95565 17.3798 10.0496 17.3798H10.4852C11.3916 17.3798 11.9148 16.9226 12.0514 16.0165C12.113 15.6201 12.054 15.3087 11.8759 15.0906C11.6804 14.851 11.3335 14.7244 10.8729 14.7244ZM11.0317 16.0677C10.9564 16.5824 10.5792 16.5824 10.2144 16.5824H10.0068L10.1524 15.6212C10.1611 15.5631 10.2094 15.5203 10.2657 15.5203H10.3609C10.6094 15.5203 10.8438 15.5203 10.9649 15.6679C11.0371 15.756 11.0593 15.8869 11.0317 16.0677Z" fill="#253B80"/>
<path d="M15.1073 16.1705H14.4292C14.3714 16.1705 14.3215 16.2104 14.3126 16.2646L14.2826 16.4438L14.2352 16.3788C14.0884 16.1775 13.761 16.1102 13.4343 16.1102C12.685 16.1102 12.045 16.6464 11.9203 17.3986C11.8555 17.7738 11.9476 18.1326 12.1729 18.3828C12.3796 18.6128 12.6752 18.7087 13.027 18.7087C13.6308 18.7087 13.9656 18.3419 13.9656 18.3419L13.9354 18.5199C13.924 18.588 13.9795 18.649 14.0518 18.649H14.6626C14.7597 18.649 14.8417 18.5825 14.857 18.4919L15.2235 16.2992C15.2351 16.2317 15.1798 16.1705 15.1073 16.1705ZM14.1621 17.4174C14.0967 17.7834 13.7892 18.0291 13.397 18.0291C13.2001 18.0291 13.0428 17.9694 12.9417 17.8563C12.8415 17.7441 12.8034 17.5842 12.8353 17.4062C12.8964 17.0433 13.209 16.7896 13.5952 16.7896C13.7878 16.7896 13.9443 16.8501 14.0474 16.9641C14.1507 17.0793 14.1917 17.2401 14.1621 17.4174Z" fill="#253B80"/>
<path d="M18.2678 16.1102H17.6492C17.5902 16.1102 17.5348 16.1403 17.5013 16.1905L16.6483 17.4771L16.2867 16.2407C16.2639 16.1633 16.1942 16.1102 16.1153 16.1102H15.5075C15.4336 16.1102 15.3823 16.1841 15.4058 16.2553L16.0871 18.3025L15.4466 19.2284C15.3962 19.3013 15.4469 19.4016 15.534 19.4016H16.1517C16.2104 19.4016 16.2652 19.3723 16.2985 19.3231L18.3557 16.2825C18.405 16.2097 18.3544 16.1102 18.2678 16.1102Z" fill="#253B80"/>
<path d="M20.498 14.7244H19.1217C19.0278 14.7244 18.9477 14.7957 18.933 14.8926L18.3764 18.5706C18.3654 18.6432 18.4193 18.7086 18.4895 18.7086H19.1958C19.2614 18.7086 19.3175 18.6587 19.3278 18.5907L19.4857 17.5482C19.5002 17.4511 19.5805 17.3798 19.6745 17.3798H20.1099C21.0166 17.3798 21.5395 16.9226 21.6763 16.0165C21.7381 15.6201 21.6787 15.3087 21.5007 15.0906C21.3053 14.851 20.9586 14.7244 20.498 14.7244ZM20.6568 16.0677C20.5817 16.5824 20.2045 16.5824 19.8395 16.5824H19.632L19.7779 15.6212C19.7865 15.5631 19.8344 15.5203 19.891 15.5203H19.9861C20.2344 15.5203 20.4691 15.5203 20.5902 15.6679C20.6624 15.756 20.6844 15.8869 20.6568 16.0677Z" fill="#179BD7"/>
<path d="M24.7316 16.1705H24.0539C23.9957 16.1705 23.9462 16.2104 23.9375 16.2646L23.9075 16.4438L23.8598 16.3788C23.713 16.1775 23.3859 16.1102 23.0591 16.1102C22.3097 16.1102 21.6699 16.6464 21.5453 17.3986C21.4806 17.7738 21.5724 18.1326 21.7977 18.3828C22.0047 18.6128 22.3 18.7087 22.6518 18.7087C23.2556 18.7087 23.5905 18.3419 23.5905 18.3419L23.5602 18.5199C23.5488 18.588 23.6043 18.649 23.677 18.649H24.2876C24.3843 18.649 24.4668 18.5825 24.4819 18.4919L24.8486 16.2992C24.8598 16.2317 24.8043 16.1705 24.7316 16.1705ZM23.7863 17.4174C23.7213 17.7834 23.4134 18.0291 23.0212 18.0291C22.8247 18.0291 22.6669 17.9694 22.5659 17.8563C22.4657 17.7441 22.428 17.5842 22.4595 17.4062C22.521 17.0433 22.8332 16.7896 23.2194 16.7896C23.412 16.7896 23.5685 16.8501 23.6716 16.9641C23.7754 17.0793 23.8164 17.2401 23.7863 17.4174Z" fill="#179BD7"/>
<path d="M25.4045 14.8254L24.8514 18.5706C24.8406 18.6432 24.8934 18.7086 24.9621 18.7086H25.5182C25.6106 18.7086 25.689 18.6373 25.7032 18.5402L26.2486 14.8626C26.2594 14.79 26.2066 14.7244 26.1378 14.7244H25.5152C25.4602 14.7246 25.4129 14.7674 25.4045 14.8254Z" fill="#179BD7"/>
<path d="M15.9847 13.136L16.1779 11.9155L15.7474 11.9056H13.692L15.1204 2.89985C15.1249 2.87266 15.1393 2.84731 15.1603 2.82931C15.1814 2.81131 15.2084 2.80139 15.2365 2.80139H18.7022C19.8528 2.80139 20.6468 3.03946 21.0613 3.50934C21.2557 3.72978 21.3795 3.96013 21.4393 4.21362C21.5021 4.47961 21.5032 4.7974 21.4419 5.18499L21.4375 5.21328V5.46164L21.6318 5.57112C21.7955 5.65745 21.9256 5.75628 22.0253 5.86943C22.1916 6.0579 22.2991 6.29744 22.3445 6.58143C22.3915 6.8735 22.3759 7.22105 22.2991 7.61452C22.2104 8.06714 22.0671 8.46134 21.8735 8.78391C21.6954 9.08113 21.4685 9.32764 21.1991 9.51868C20.942 9.70017 20.6364 9.83794 20.291 9.92611C19.9562 10.0128 19.5745 10.0565 19.1559 10.0565H18.8862C18.6933 10.0565 18.506 10.1256 18.3589 10.2494C18.2115 10.3758 18.114 10.5485 18.084 10.7373L18.0637 10.8472L17.7223 12.9982L17.7068 13.0772C17.7027 13.1022 17.6957 13.1147 17.6854 13.1231C17.6761 13.1308 17.6628 13.136 17.6499 13.136H15.9847Z" fill="#253B80"/>
<path d="M21.8158 5.24194C21.8055 5.30771 21.7937 5.37494 21.7804 5.44401C21.3233 7.77728 19.7597 8.58332 17.7626 8.58332H16.7458C16.5016 8.58332 16.2958 8.75967 16.2577 8.9992L15.7371 12.2822L15.5897 13.2128C15.5649 13.37 15.6869 13.5118 15.8465 13.5118H17.6499C17.8635 13.5118 18.0449 13.3575 18.0785 13.1481L18.0963 13.057L18.4358 10.9144L18.4576 10.7968C18.4909 10.5867 18.6726 10.4324 18.8862 10.4324H19.1559C20.9032 10.4324 22.271 9.727 22.6708 7.6858C22.8378 6.83309 22.7514 6.1211 22.3095 5.62035C22.1757 5.46936 22.0098 5.34408 21.8158 5.24194Z" fill="#179BD7"/>
<path d="M21.3377 5.0524C21.2679 5.0322 21.1958 5.01383 21.1219 4.99729C21.0477 4.98113 20.9715 4.9668 20.8932 4.95431C20.6191 4.91022 20.3187 4.88928 19.9968 4.88928H17.2804C17.2135 4.88928 17.15 4.90435 17.0931 4.93153C16.9678 4.99142 16.8747 5.10935 16.8522 5.25373L16.2743 8.89306L16.2577 8.99923C16.2957 8.7597 16.5015 8.58335 16.7458 8.58335H17.7626C19.7596 8.58335 21.3233 7.77694 21.7803 5.44404C21.794 5.37497 21.8055 5.30774 21.8158 5.24197C21.7002 5.18099 21.5749 5.12882 21.44 5.08436C21.4068 5.07334 21.3724 5.06269 21.3377 5.0524Z" fill="#222D65"/>
<path d="M16.8522 5.25368C16.8747 5.1093 16.9678 4.99136 17.0931 4.93185C17.1504 4.90466 17.2135 4.8896 17.2804 4.8896H19.9968C20.3187 4.8896 20.619 4.91054 20.8932 4.95463C20.9715 4.96712 21.0476 4.98144 21.1219 4.99761C21.1958 5.01414 21.2679 5.03251 21.3377 5.05272C21.3724 5.063 21.4068 5.07366 21.4404 5.08431C21.5753 5.12877 21.7005 5.1813 21.8162 5.24192C21.9521 4.37967 21.8151 3.79258 21.3462 3.26097C20.8293 2.67573 19.8963 2.42517 18.7025 2.42517H15.2368C14.9929 2.42517 14.7849 2.60152 14.7472 2.84142L13.3037 11.9397C13.2752 12.1198 13.4149 12.2821 13.5974 12.2821H15.7371L16.2743 8.89301L16.8522 5.25368Z" fill="#253B80"/>
<path d="M0 0V-1H-1V0H0ZM35 0H36V-1H35V0ZM35 22V23H36V22H35ZM0 22H-1V23H0V22ZM0 1H35V-1H0V1ZM34 0V22H36V0H34ZM35 21H0V23H35V21ZM1 22V0H-1V22H1Z" fill="#CBCBCB"/>
</svg>
