<svg fill="none" height="32" viewBox="0 0 51 32" width="51" xmlns="http://www.w3.org/2000/svg"><path d="m50.7249 30.1135c0 1.0481-.8384 1.8865-1.8865 1.8865h-46.95194c-1.048034 0-1.88646-.8384-1.88646-1.8865v-28.22703c0-1.048039.838426-1.88647 1.88646-1.88647h46.95194c1.0481 0 1.8865.838431 1.8865 1.88647z" fill="#fff"/><path d="m19.2838 9.29259-5.6593 13.48471h-3.70311l-2.79476-10.7598c-.13974-.6288-.34934-.9083-.83842-1.1878-.83843-.4192-2.23581-.90829-3.42359-1.1179l.06987-.41921h5.93887c.76856 0 1.46724.48908 1.60694 1.39741l1.4673 7.8253 3.6332-9.15285h3.703zm14.4629 9.08301c0-3.5634-4.8908-3.773-4.8908-5.3101 0-.4891.4891-.9782 1.4672-1.1179.4891-.0699 1.8865-.1397 3.4236.6288l.6288-2.8646c-.8384-.27948-1.8864-.62882-3.2838-.62882-3.4236 0-5.869 1.81662-5.869 4.47162 0 1.9563 1.7467 3.0044 3.0742 3.6332 1.3276.6288 1.8166 1.048 1.8166 1.6768 0 .9083-1.048 1.3275-2.096 1.3275-1.7468 0-2.7948-.489-3.5634-.8384l-.6288 2.9345c.8385.3494 2.3057.6987 3.8428.6987 3.6332 0 6.0088-1.8166 6.0786-4.6113zm9.083 4.4017h3.214l-2.7948-13.48471h-3.0044c-.6987 0-1.2576.41921-1.4672.97821l-5.2402 12.5065h3.6332l.6987-2.0262h4.4716zm-3.9127-4.7511 1.8166-5.0306 1.0481 5.0306zm-14.6725-8.73361-2.8646 13.48471h-3.4934l2.8646-13.48471z" fill="#1a1f71"/></svg>