<svg width="382" height="112" viewBox="0 0 382 112" fill="none" xmlns="http://www.w3.org/2000/svg">
<g clip-path="url(#clip0_7_2)">
<mask id="mask0_7_2" style="mask-type:luminance" maskUnits="userSpaceOnUse" x="0" y="0" width="382" height="112">
<path d="M381.5 0H0V112H381.5V0Z" fill="white"/>
</mask>
<g mask="url(#mask0_7_2)">
<path fill-rule="evenodd" clip-rule="evenodd" d="M96.0596 59.6922C96.2854 58.4875 96.3596 57.4347 96.3596 56.2328C96.3596 42.9884 86.5305 33.2039 73.2494 33.2039C59.9683 33.2039 50.1393 43.2898 50.1393 56.2328C50.1393 69.1754 60.1944 79.2614 73.4755 79.2614C80.906 79.2614 87.8073 76.3242 92.61 70.2289L83.6826 63.7578C81.2812 66.8441 77.7546 68.7246 73.779 68.7246C67.9284 68.7246 63.2744 65.0353 61.7747 59.6922H96.0596ZM84.959 51.3373C83.3077 46.3705 78.8827 43.3587 73.4783 43.3587C68.0743 43.3587 63.7238 46.445 62.0722 51.3373H84.959Z" fill="#332E80"/>
<path d="M33.014 39.2791L32.5647 34.1025H22.0113V78.3569H33.5579V45.6498C37.8941 46.8356 46.5927 47.3553 50.666 34.4786C40.3732 31.2027 35.3811 35.3314 33.014 39.2791Z" fill="#332E80"/>
<path fill-rule="evenodd" clip-rule="evenodd" d="M0.395203 56C0.395203 86.878 25.4404 112 56.2244 112C87.0086 112 112.054 86.878 112.054 56C112.054 25.1218 87.0086 0 56.2244 0C25.4404 0 0.395203 25.1218 0.395203 56ZM7.32771 56C7.32771 28.9546 29.2616 6.9537 56.2244 6.9537C83.1873 6.9537 105.121 28.9546 105.121 56C105.121 83.0452 83.1873 105.046 56.2244 105.046C29.2616 105.046 7.32771 83.0452 7.32771 56Z" fill="#332E80"/>
<path fill-rule="evenodd" clip-rule="evenodd" d="M277.712 56.2296C277.712 69.5513 268.032 79.2586 255.426 79.2586C249.874 79.2586 245.523 77.3003 242.521 74.1395V78.3542H231.566V17.436H243.122V37.6366C246.198 34.8518 250.4 33.1952 255.426 33.1952C268.032 33.1952 277.712 42.9797 277.712 56.224V56.2296ZM266.009 56.0028C266.009 48.9286 260.905 43.8095 254.153 43.8095C247.401 43.8095 242.223 48.9286 242.223 56.0028C242.223 63.077 247.401 68.271 254.153 68.271C260.905 68.271 266.009 63.1519 266.009 56.0028Z" fill="#332E80"/>
<path d="M134.526 34.2345H140.454V44.3205H134.526V78.357H123.119V44.3205H118.843V34.2345H123.119V30.7605C123.119 20.2984 129.496 17.4388 137.975 17.4388H142.552V27.7488H138.35C135.573 27.7488 134.523 28.7278 134.523 31.4352V34.2316L134.526 34.2345Z" fill="#332E80"/>
<path d="M187.046 34.1025H175.342L175.339 34.1053V60.3726C175.339 65.3394 172.114 68.3512 167.611 68.3512C163.109 68.3512 160.258 65.4143 160.258 60.3726V34.1053H148.628V62.4026C148.628 72.7125 155.455 79.2614 165.135 79.2614C169.489 79.2614 173.39 77.7539 175.866 74.8199V78.357H187.046V34.1025Z" fill="#332E80"/>
<path fill-rule="evenodd" clip-rule="evenodd" d="M329.388 56.2328C329.388 57.4347 329.314 58.4875 329.089 59.6922H294.803C296.303 65.0353 300.957 68.7246 306.808 68.7246C310.784 68.7246 314.31 66.8441 316.711 63.7578L325.639 70.2289C320.836 76.3242 313.935 79.2614 306.504 79.2614C293.223 79.2614 283.168 69.1754 283.168 56.2328C283.168 43.2898 292.997 33.2039 306.278 33.2039C319.559 33.2039 329.388 42.9884 329.388 56.2328ZM306.507 43.3587C311.911 43.3587 316.337 46.3705 317.988 51.3373H295.101C296.753 46.445 301.103 43.3587 306.507 43.3587Z" fill="#332E80"/>
<path fill-rule="evenodd" clip-rule="evenodd" d="M369.474 17.4388H381.104V78.357H370.076V74.1423C367.073 77.3031 362.723 79.2614 357.172 79.2614C344.565 79.2614 334.884 69.5513 334.884 56.2324C334.884 42.9139 344.565 33.2038 357.172 33.2038C362.198 33.2038 366.475 34.8604 369.474 37.6453V17.4388ZM370.377 56.0028C370.377 48.9286 365.274 43.8095 358.445 43.8095C351.62 43.8095 346.591 48.9286 346.591 56.0028C346.591 63.077 351.767 68.271 358.445 68.271C365.123 68.271 370.377 63.1519 370.377 56.0028Z" fill="#332E80"/>
<path d="M208.33 34.1025L208.78 39.2791C211.147 35.3314 216.139 31.2027 226.431 34.4786C222.359 47.3553 213.66 46.8356 209.323 45.6498V78.3569H197.777V34.1025H208.33Z" fill="#332E80"/>
</g>
</g>
<defs>
<clipPath id="clip0_7_2">
<rect width="381.5" height="112" fill="white"/>
</clipPath>
</defs>
</svg>
